{
  "accessors": [
    {
      "bufferView": 2,
      "componentType": 5126,
      "count": 8589,
      "max": [
        0.9574419856071472,
        0.3090650141239166,
        0.10535100102424622
      ],
      "min": [
        -0.9581959843635559,
        -0.3116610050201416,
        -0.10587500035762787
      ],
      "type": "VEC3"
    },
    {
      "bufferView": 2,
      "byteOffset": 103068,
      "componentType": 5126,
      "count": 8589,
      "max": [
        0.9999988675117493,
        0.9985749125480652,
        0.999999463558197
      ],
      "min": [
        -0.9999298453330994,
        -1.0,
        -0.9999891519546509
      ],
      "type": "VEC3"
    },
    {
      "bufferView": 3,
      "componentType": 5126,
      "count": 8589,
      "max": [
        0.9999812841415405,
        0.9999982714653015,
        0.9999041557312012,
        1.0
      ],
      "min": [
        -0.9999815821647644,
        -0.9999972581863403,
        -0.9999623894691467,
        -1.0
      ],
      "type": "VEC4"
    },
    {
      "bufferView": 1,
      "componentType": 5126,
      "count": 8589,
      "max": [
        0.998989999294281,
        0.9999970197677612
      ],
      "min": [
        8.600000001024455e-05,
        2.0265579223632813e-06
      ],
      "type": "VEC2"
    },
    {
      "bufferView": 1,
      "byteOffset": 68712,
      "componentType": 5126,
      "count": 8589,
      "max": [
        0.998989999294281,
        0.9999970197677612
      ],
      "min": [
        8.600000001024455e-05,
        2.0265579223632813e-06
      ],
      "type": "VEC2"
    },
    {
      "bufferView": 1,
      "byteOffset": 137424,
      "componentType": 5126,
      "count": 8589,
      "max": [
        0.998989999294281,
        0.9999970197677612
      ],
      "min": [
        8.600000001024455e-05,
        2.0265579223632813e-06
      ],
      "type": "VEC2"
    },
    {
      "bufferView": 1,
      "byteOffset": 206136,
      "componentType": 5126,
      "count": 8589,
      "max": [
        0.998989999294281,
        0.9999970197677612
      ],
      "min": [
        8.600000001024455e-05,
        2.0265579223632813e-06
      ],
      "type": "VEC2"
    },
    {
      "bufferView": 0,
      "componentType": 5125,
      "count": 30000,
      "type": "SCALAR"
    }
  ],
  "asset": {
    "extras": {
      "author": "danlovesmothers (https://sketchfab.com/dodan54)",
      "license": "CC-BY-4.0 (http://creativecommons.org/licenses/by/4.0/)",
      "source": "https://sketchfab.com/3d-models/red-velvet-rope-barriers-809c332e18f54d4784a94456fa1cecc8",
      "title": "Red Velvet Rope Barriers"
    },
    "generator": "Sketchfab-16.95.0",
    "version": "2.0"
  },
  "bufferViews": [
    {
      "buffer": 0,
      "byteLength": 120000,
      "name": "floatBufferViews",
      "target": 34963
    },
    {
      "buffer": 0,
      "byteLength": 274848,
      "byteOffset": 120000,
      "byteStride": 8,
      "name": "floatBufferViews",
      "target": 34962
    },
    {
      "buffer": 0,
      "byteLength": 206136,
      "byteOffset": 394848,
      "byteStride": 12,
      "name": "floatBufferViews",
      "target": 34962
    },
    {
      "buffer": 0,
      "byteLength": 137424,
      "byteOffset": 600984,
      "byteStride": 16,
      "name": "floatBufferViews",
      "target": 34962
    }
  ],
  "buffers": [
    {
      "byteLength": 738408,
      "uri": "scene.bin"
    }
  ],
  "images": [
    {
      "uri": "textures/material_0_baseColor.jpeg"
    },
    {
      "uri": "textures/material_0_metallicRoughness.png"
    },
    {
      "uri": "textures/material_0_normal.jpeg"
    }
  ],
  "materials": [
    {
      "doubleSided": true,
      "name": "material_0",
      "normalTexture": {
        "index": 2
      },
      "pbrMetallicRoughness": {
        "baseColorTexture": {
          "index": 0
        },
        "metallicRoughnessTexture": {
          "index": 1
        }
      }
    }
  ],
  "meshes": [
    {
      "name": "Object_0",
      "primitives": [
        {
          "attributes": {
            "NORMAL": 1,
            "POSITION": 0,
            "TANGENT": 2,
            "TEXCOORD_0": 3,
            "TEXCOORD_1": 4,
            "TEXCOORD_2": 5,
            "TEXCOORD_3": 6
          },
          "indices": 7,
          "material": 0,
          "mode": 4
        }
      ]
    }
  ],
  "nodes": [
    {
      "children": [
        1
      ],
      "matrix": [
        1.0,
        0.0,
        0.0,
        0.0,
        0.0,
        2.220446049250313e-16,
        -1.0,
        0.0,
        0.0,
        1.0,
        2.220446049250313e-16,
        0.0,
        0.0,
        0.0,
        0.0,
        1.0
      ],
      "name": "Sketchfab_model"
    },
    {
      "children": [
        2
      ],
      "name": "root"
    },
    {
      "children": [
        3
      ],
      "matrix": [
        1.0,
        0.0,
        0.0,
        0.0,
        0.0,
        2.220446049250313e-16,
        1.0,
        0.0,
        0.0,
        -1.0,
        2.220446049250313e-16,
        0.0,
        0.0,
        0.0,
        0.0,
        1.0
      ],
      "name": "GLTF_SceneRootNode"
    },
    {
      "children": [
        4
      ],
      "name": "_0"
    },
    {
      "mesh": 0,
      "name": "Object_4"
    }
  ],
  "samplers": [
    {
      "magFilter": 9729,
      "minFilter": 9987,
      "wrapS": 10497,
      "wrapT": 10497
    }
  ],
  "scene": 0,
  "scenes": [
    {
      "name": "Sketchfab_Scene",
      "nodes": [
        0
      ]
    }
  ],
  "textures": [
    {
      "sampler": 0,
      "source": 0
    },
    {
      "sampler": 0,
      "source": 1
    },
    {
      "sampler": 0,
      "source": 2
    }
  ]
}
