{
  "accessors": [
    {
      "bufferView": 2,
      "componentType": 5126,
      "count": 188,
      "max": [
        0.7126233577728271,
        0.6636462807655334,
        0.35209280252456665
      ],
      "min": [
        -0.5717589855194092,
        0.208054780960083,
        -0.3520909547805786
      ],
      "type": "VEC3"
    },
    {
      "bufferView": 2,
      "byteOffset": 2256,
      "componentType": 5126,
      "count": 188,
      "max": [
        0.999203085899353,
        0.9931823015213013,
        0.9999991059303284
      ],
      "min": [
        -0.999203085899353,
        -0.9931826591491699,
        -0.9999991059303284
      ],
      "type": "VEC3"
    },
    {
      "bufferView": 1,
      "componentType": 5126,
      "count": 188,
      "max": [
        0.0,
        0.7379928827285767
      ],
      "min": [
        0.0,
        0.0
      ],
      "type": "VEC2"
    },
    {
      "bufferView": 0,
      "componentType": 5125,
      "count": 282,
      "type": "SCALAR"
    },
    {
      "bufferView": 2,
      "byteOffset": 4512,
      "componentType": 5126,
      "count": 602,
      "max": [
        0.6175844669342041,
        0.6165942549705505,
        0.34259477257728577
      ],
      "min": [
        -0.577177107334137,
        -0.3721105754375458,
        -0.34259292483329773
      ],
      "type": "VEC3"
    },
    {
      "bufferView": 2,
      "byteOffset": 11736,
      "componentType": 5126,
      "count": 602,
      "max": [
        1.0,
        1.0,
        1.0
      ],
      "min": [
        -1.0,
        -1.0,
        -1.0
      ],
      "type": "VEC3"
    },
    {
      "bufferView": 1,
      "byteOffset": 1504,
      "componentType": 5126,
      "count": 602,
      "max": [
        0.875,
        0.5
      ],
      "min": [
        0.0,
        0.0
      ],
      "type": "VEC2"
    },
    {
      "bufferView": 0,
      "byteOffset": 1128,
      "componentType": 5125,
      "count": 924,
      "type": "SCALAR"
    },
    {
      "bufferView": 2,
      "byteOffset": 18960,
      "componentType": 5126,
      "count": 4,
      "max": [
        -0.5601813793182373,
        0.30669477581977844,
        0.09333023428916931
      ],
      "min": [
        -0.5701330900192261,
        0.22190725803375244,
        -0.09337613731622696
      ],
      "type": "VEC3"
    },
    {
      "bufferView": 2,
      "byteOffset": 19008,
      "componentType": 5126,
      "count": 4,
      "max": [
        -0.9931822419166565,
        -0.11657217890024185,
        -0.0
      ],
      "min": [
        -0.9931822419166565,
        -0.11657217890024185,
        -0.0
      ],
      "type": "VEC3"
    },
    {
      "bufferView": 1,
      "byteOffset": 6320,
      "componentType": 5126,
      "count": 4,
      "max": [
        0.0,
        0.7000924348831177
      ],
      "min": [
        0.0,
        0.46811357140541077
      ],
      "type": "VEC2"
    },
    {
      "bufferView": 0,
      "byteOffset": 4824,
      "componentType": 5125,
      "count": 6,
      "type": "SCALAR"
    },
    {
      "bufferView": 2,
      "byteOffset": 19056,
      "componentType": 5126,
      "count": 352,
      "max": [
        0.4139004051685333,
        -0.313664972782135,
        0.2691202759742737
      ],
      "min": [
        -0.37272632122039795,
        -0.40518075227737427,
        -0.26911842823028564
      ],
      "type": "VEC3"
    },
    {
      "bufferView": 2,
      "byteOffset": 23280,
      "componentType": 5126,
      "count": 352,
      "max": [
        0.9999959468841553,
        0.9999959468841553,
        1.0
      ],
      "min": [
        -0.9999959468841553,
        -0.9999958872795105,
        -1.0
      ],
      "type": "VEC3"
    },
    {
      "bufferView": 1,
      "byteOffset": 6352,
      "componentType": 5126,
      "count": 352,
      "max": [
        0.0,
        0.0
      ],
      "min": [
        0.0,
        0.0
      ],
      "type": "VEC2"
    },
    {
      "bufferView": 0,
      "byteOffset": 4848,
      "componentType": 5125,
      "count": 528,
      "type": "SCALAR"
    },
    {
      "bufferView": 2,
      "byteOffset": 27504,
      "componentType": 5126,
      "count": 20,
      "max": [
        0.4832964837551117,
        0.4962380826473236,
        0.31665942072868347
      ],
      "min": [
        -0.5653374195098877,
        -0.057813744992017746,
        -0.3166576325893402
      ],
      "type": "VEC3"
    },
    {
      "bufferView": 2,
      "byteOffset": 27744,
      "componentType": 5126,
      "count": 20,
      "max": [
        0.9140321612358093,
        -0.09690656512975693,
        0.9899091720581055
      ],
      "min": [
        -0.9931823015213013,
        -0.9912819862365723,
        -0.9899091720581055
      ],
      "type": "VEC3"
    },
    {
      "bufferView": 1,
      "byteOffset": 9168,
      "componentType": 5126,
      "count": 20,
      "max": [
        0.9885523319244385,
        0.9866170883178711
      ],
      "min": [
        0.008817538619041443,
        0.005792010575532913
      ],
      "type": "VEC2"
    },
    {
      "bufferView": 0,
      "byteOffset": 6960,
      "componentType": 5125,
      "count": 30,
      "type": "SCALAR"
    },
    {
      "bufferView": 2,
      "byteOffset": 27984,
      "componentType": 5126,
      "count": 1692,
      "max": [
        3.808145046234131,
        0.6636462807655334,
        0.35209280252456665
      ],
      "min": [
        -0.5717589855194092,
        0.208054780960083,
        -0.3520909547805786
      ],
      "type": "VEC3"
    },
    {
      "bufferView": 2,
      "byteOffset": 48288,
      "componentType": 5126,
      "count": 1692,
      "max": [
        0.9992033839225769,
        0.9931824207305908,
        0.9999991059303284
      ],
      "min": [
        -0.9992032051086426,
        -0.9931827187538147,
        -0.9999991059303284
      ],
      "type": "VEC3"
    },
    {
      "bufferView": 1,
      "byteOffset": 9328,
      "componentType": 5126,
      "count": 1692,
      "max": [
        0.0,
        0.7379928827285767
      ],
      "min": [
        0.0,
        0.0
      ],
      "type": "VEC2"
    },
    {
      "bufferView": 0,
      "byteOffset": 7080,
      "componentType": 5125,
      "count": 2538,
      "type": "SCALAR"
    },
    {
      "bufferView": 2,
      "byteOffset": 68592,
      "componentType": 5126,
      "count": 5418,
      "max": [
        3.713106155395508,
        0.6165942549705505,
        0.34259477257728577
      ],
      "min": [
        -0.577177107334137,
        -0.3721105754375458,
        -0.34259292483329773
      ],
      "type": "VEC3"
    },
    {
      "bufferView": 2,
      "byteOffset": 133608,
      "componentType": 5126,
      "count": 5418,
      "max": [
        1.0,
        1.0,
        1.0
      ],
      "min": [
        -1.0,
        -1.0,
        -1.0
      ],
      "type": "VEC3"
    },
    {
      "bufferView": 1,
      "byteOffset": 22864,
      "componentType": 5126,
      "count": 5418,
      "max": [
        0.875,
        0.5
      ],
      "min": [
        0.0,
        0.0
      ],
      "type": "VEC2"
    },
    {
      "bufferView": 0,
      "byteOffset": 17232,
      "componentType": 5125,
      "count": 8316,
      "type": "SCALAR"
    },
    {
      "bufferView": 2,
      "byteOffset": 198624,
      "componentType": 5126,
      "count": 36,
      "max": [
        2.5353403091430664,
        0.30669477581977844,
        0.09333023428916931
      ],
      "min": [
        -0.5701330900192261,
        0.22190725803375244,
        -0.09337613731622696
      ],
      "type": "VEC3"
    },
    {
      "bufferView": 2,
      "byteOffset": 199056,
      "componentType": 5126,
      "count": 36,
      "max": [
        -0.9931821227073669,
        -0.11657081544399261,
        -0.0
      ],
      "min": [
        -0.9931824803352356,
        -0.11657356470823288,
        -4.806739752893918e-07
      ],
      "type": "VEC3"
    },
    {
      "bufferView": 1,
      "byteOffset": 66208,
      "componentType": 5126,
      "count": 36,
      "max": [
        0.0,
        0.7000924348831177
      ],
      "min": [
        0.0,
        0.46811357140541077
      ],
      "type": "VEC2"
    },
    {
      "bufferView": 0,
      "byteOffset": 50496,
      "componentType": 5125,
      "count": 54,
      "type": "SCALAR"
    },
    {
      "bufferView": 2,
      "byteOffset": 199488,
      "componentType": 5126,
      "count": 3166,
      "max": [
        3.5094220638275146,
        -0.313664972782135,
        0.2691202759742737
      ],
      "min": [
        -0.37272632122039795,
        -0.40518075227737427,
        -0.26911842823028564
      ],
      "type": "VEC3"
    },
    {
      "bufferView": 2,
      "byteOffset": 237480,
      "componentType": 5126,
      "count": 3166,
      "max": [
        0.9999959468841553,
        0.9999959468841553,
        1.0
      ],
      "min": [
        -0.9999959468841553,
        -0.9999958872795105,
        -1.0
      ],
      "type": "VEC3"
    },
    {
      "bufferView": 1,
      "byteOffset": 66496,
      "componentType": 5126,
      "count": 3166,
      "max": [
        0.0,
        0.0
      ],
      "min": [
        0.0,
        0.0
      ],
      "type": "VEC2"
    },
    {
      "bufferView": 0,
      "byteOffset": 50712,
      "componentType": 5125,
      "count": 4752,
      "type": "SCALAR"
    },
    {
      "bufferView": 2,
      "byteOffset": 275472,
      "componentType": 5126,
      "count": 180,
      "max": [
        3.5788180828094482,
        0.4962380826473236,
        0.31665942072868347
      ],
      "min": [
        -0.5653374195098877,
        -0.057813744992017746,
        -0.3166576325893402
      ],
      "type": "VEC3"
    },
    {
      "bufferView": 2,
      "byteOffset": 277632,
      "componentType": 5126,
      "count": 180,
      "max": [
        0.9140322208404541,
        -0.09690649807453156,
        0.9899092316627502
      ],
      "min": [
        -0.9931823015213013,
        -0.9912819862365723,
        -0.9899092316627502
      ],
      "type": "VEC3"
    },
    {
      "bufferView": 1,
      "byteOffset": 91824,
      "componentType": 5126,
      "count": 180,
      "max": [
        0.9885523319244385,
        0.9866170883178711
      ],
      "min": [
        0.008817538619041443,
        0.005792010575532913
      ],
      "type": "VEC2"
    },
    {
      "bufferView": 0,
      "byteOffset": 69720,
      "componentType": 5125,
      "count": 270,
      "type": "SCALAR"
    }
  ],
  "asset": {
    "extras": {
      "author": "MauricioPB (https://sketchfab.com/mauriciopb1111)",
      "license": "CC-BY-4.0 (http://creativecommons.org/licenses/by/4.0/)",
      "source": "https://sketchfab.com/3d-models/low-poly-shopping-cart-dfffb6c91b4744eaae6e0e2dcc8da914",
      "title": "Low Poly Shopping Cart"
    },
    "generator": "Sketchfab-16.15.0",
    "version": "2.0"
  },
  "bufferViews": [
    {
      "buffer": 0,
      "byteLength": 70800,
      "name": "floatBufferViews",
      "target": 34963
    },
    {
      "buffer": 0,
      "byteLength": 93264,
      "byteOffset": 70800,
      "byteStride": 8,
      "name": "floatBufferViews",
      "target": 34962
    },
    {
      "buffer": 0,
      "byteLength": 279792,
      "byteOffset": 164064,
      "byteStride": 12,
      "name": "floatBufferViews",
      "target": 34962
    }
  ],
  "buffers": [
    {
      "byteLength": 443856,
      "uri": "ene.bin"
    }
  ],
  "images": [
    {
      "uri": "textures/Material_baseColor.png"
    }
  ],
  "materials": [
    {
      "doubleSided": true,
      "name": "Material.003",
      "pbrMetallicRoughness": {
        "baseColorFactor": [
          0.599142,
          0.0198745,
          0.0198745,
          1.0
        ],
        "metallicFactor": 0.0
      }
    },
    {
      "doubleSided": true,
      "name": "Material.009",
      "pbrMetallicRoughness": {
        "baseColorFactor": [
          0.179551,
          0.179551,
          0.179551,
          1.0
        ],
        "metallicFactor": 0.0
      }
    },
    {
      "doubleSided": true,
      "name": "Material.001",
      "pbrMetallicRoughness": {
        "baseColorFactor": [
          0.531524,
          0.524649,
          0.458891,
          1.0
        ],
        "metallicFactor": 0.0
      }
    },
    {
      "doubleSided": true,
      "name": "Material.004",
      "pbrMetallicRoughness": {
        "baseColorFactor": [
          0.0332986,
          0.0352097,
          0.0369578,
          1.0
        ],
        "metallicFactor": 0.0
      }
    },
    {
      "alphaMode": "MASK",
      "doubleSided": true,
      "name": "Material",
      "pbrMetallicRoughness": {
        "baseColorFactor": [
          0.263469,
          0.263469,
          0.263469,
          1.0
        ],
        "baseColorTexture": {
          "index": 0
        },
        "metallicFactor": 0.0
      }
    }
  ],
  "meshes": [
    {
      "name": "Object_0",
      "primitives": [
        {
          "attributes": {
            "NORMAL": 1,
            "POSITION": 0,
            "TEXCOORD_0": 2
          },
          "indices": 3,
          "material": 0,
          "mode": 4
        }
      ]
    },
    {
      "name": "Object_1",
      "primitives": [
        {
          "attributes": {
            "NORMAL": 5,
            "POSITION": 4,
            "TEXCOORD_0": 6
          },
          "indices": 7,
          "material": 1,
          "mode": 4
        }
      ]
    },
    {
      "name": "Object_2",
      "primitives": [
        {
          "attributes": {
            "NORMAL": 9,
            "POSITION": 8,
            "TEXCOORD_0": 10
          },
          "indices": 11,
          "material": 2,
          "mode": 4
        }
      ]
    },
    {
      "name": "Object_3",
      "primitives": [
        {
          "attributes": {
            "NORMAL": 13,
            "POSITION": 12,
            "TEXCOORD_0": 14
          },
          "indices": 15,
          "material": 3,
          "mode": 4
        }
      ]
    },
    {
      "name": "Object_4",
      "primitives": [
        {
          "attributes": {
            "NORMAL": 17,
            "POSITION": 16,
            "TEXCOORD_0": 18
          },
          "indices": 19,
          "material": 4,
          "mode": 4
        }
      ]
    },
    {
      "name": "Object_5",
      "primitives": [
        {
          "attributes": {
            "NORMAL": 21,
            "POSITION": 20,
            "TEXCOORD_0": 22
          },
          "indices": 23,
          "material": 0,
          "mode": 4
        }
      ]
    },
    {
      "name": "Object_6",
      "primitives": [
        {
          "attributes": {
            "NORMAL": 25,
            "POSITION": 24,
            "TEXCOORD_0": 26
          },
          "indices": 27,
          "material": 1,
          "mode": 4
        }
      ]
    },
    {
      "name": "Object_7",
      "primitives": [
        {
          "attributes": {
            "NORMAL": 29,
            "POSITION": 28,
            "TEXCOORD_0": 30
          },
          "indices": 31,
          "material": 2,
          "mode": 4
        }
      ]
    },
    {
      "name": "Object_8",
      "primitives": [
        {
          "attributes": {
            "NORMAL": 33,
            "POSITION": 32,
            "TEXCOORD_0": 34
          },
          "indices": 35,
          "material": 3,
          "mode": 4
        }
      ]
    },
    {
      "name": "Object_9",
      "primitives": [
        {
          "attributes": {
            "NORMAL": 37,
            "POSITION": 36,
            "TEXCOORD_0": 38
          },
          "indices": 39,
          "material": 4,
          "mode": 4
        }
      ]
    }
  ],
  "nodes": [
    {
      "children": [
        1
      ],
      "matrix": [
        1.0,
        0.0,
        0.0,
        0.0,
        0.0,
        2.220446049250313e-16,
        -1.0,
        0.0,
        0.0,
        1.0,
        2.220446049250313e-16,
        0.0,
        0.0,
        0.0,
        0.0,
        1.0
      ],
      "name": "Sketchfab_model"
    },
    {
      "children": [
        2
      ],
      "name": "root"
    },
    {
      "children": [
        3,
        9
      ],
      "matrix": [
        1.0,
        0.0,
        0.0,
        0.0,
        0.0,
        2.220446049250313e-16,
        1.0,
        0.0,
        0.0,
        -1.0,
        2.220446049250313e-16,
        0.0,
        0.0,
        0.0,
        0.0,
        1.0
      ],
      "name": "GLTF_SceneRootNode"
    },
    {
      "children": [
        4,
        5,
        6,
        7,
        8
      ],
      "matrix": [
        1.0,
        0.0,
        0.0,
        0.0,
        0.0,
        1.0,
        0.0,
        0.0,
        0.0,
        0.0,
        1.0,
        0.0,
        0.12353696674108505,
        0.3986245393753052,
        0.0884963870048523,
        1.0
      ],
      "name": "Plane.001_0"
    },
    {
      "mesh": 0,
      "name": "Object_4"
    },
    {
      "mesh": 1,
      "name": "Object_5"
    },
    {
      "mesh": 2,
      "name": "Object_6"
    },
    {
      "mesh": 3,
      "name": "Object_7"
    },
    {
      "mesh": 4,
      "name": "Object_8"
    },
    {
      "children": [
        10,
        11,
        12,
        13,
        14
      ],
      "matrix": [
        1.0,
        0.0,
        0.0,
        0.0,
        0.0,
        1.0,
        0.0,
        0.0,
        0.0,
        0.0,
        1.0,
        0.0,
        0.12353696674108505,
        0.3986245393753052,
        2.2672154903411865,
        1.0
      ],
      "name": "Plane.002_1"
    },
    {
      "mesh": 5,
      "name": "Object_10"
    },
    {
      "mesh": 6,
      "name": "Object_11"
    },
    {
      "mesh": 7,
      "name": "Object_12"
    },
    {
      "mesh": 8,
      "name": "Object_13"
    },
    {
      "mesh": 9,
      "name": "Object_14"
    }
  ],
  "samplers": [
    {
      "magFilter": 9729,
      "minFilter": 9987,
      "wrapS": 10497,
      "wrapT": 10497
    }
  ],
  "scene": 0,
  "scenes": [
    {
      "name": "Sketchfab_Scene",
      "nodes": [
        0
      ]
    }
  ],
  "textures": [
    {
      "sampler": 0,
      "source": 0
    }
  ]
}
