{
  "accessors": [
    {
      "bufferView": 2,
      "componentType": 5126,
      "count": 61,
      "max": [
        0.3733367621898651,
        1.854587435722351,
        2.4477169513702393
      ],
      "min": [
        -0.3733367621898651,
        -2.214193344116211,
        -0.04472242668271065
      ],
      "type": "VEC3"
    },
    {
      "bufferView": 2,
      "byteOffset": 732,
      "componentType": 5126,
      "count": 61,
      "max": [
        0.9116932153701782,
        0.9998135566711426,
        0.9882383942604065
      ],
      "min": [
        -0.9116933345794678,
        -0.9905996918678284,
        -0.9778245687484741
      ],
      "type": "VEC3"
    },
    {
      "bufferView": 1,
      "componentType": 5126,
      "count": 61,
      "max": [
        0.5510928630828857,
        0.8577815294265747
      ],
      "min": [
        0.0669262558221817,
        0.5638883113861084
      ],
      "type": "VEC2"
    },
    {
      "bufferView": 0,
      "componentType": 5125,
      "count": 354,
      "type": "SCALAR"
    }
  ],
  "asset": {
    "extras": {
      "author": "joann5632 (https://sketchfab.com/ioann5632)",
      "license": "CC-BY-4.0 (http://creativecommons.org/licenses/by/4.0/)",
      "source": "https://sketchfab.com/3d-models/psx-banana-32524288d7384c1abeb10589927883e4",
      "title": "PSX Banana"
    },
    "generator": "Sketchfab-16.82.0",
    "version": "2.0"
  },
  "bufferViews": [
    {
      "buffer": 0,
      "byteLength": 1416,
      "name": "floatBufferViews",
      "target": 34963
    },
    {
      "buffer": 0,
      "byteLength": 488,
      "byteOffset": 1416,
      "byteStride": 8,
      "name": "floatBufferViews",
      "target": 34962
    },
    {
      "buffer": 0,
      "byteLength": 1464,
      "byteOffset": 1904,
      "byteStride": 12,
      "name": "floatBufferViews",
      "target": 34962
    }
  ],
  "buffers": [
    {
      "byteLength": 3368,
      "uri": "scene.bin"
    }
  ],
  "images": [
    {
      "uri": "textures/bananaps1_baseColor.png"
    }
  ],
  "materials": [
    {
      "doubleSided": true,
      "name": "bananaps1",
      "pbrMetallicRoughness": {
        "baseColorTexture": {
          "index": 0
        },
        "metallicFactor": 0.0
      }
    }
  ],
  "meshes": [
    {
      "name": "banana_bananaps1_0",
      "primitives": [
        {
          "attributes": {
            "NORMAL": 1,
            "POSITION": 0,
            "TEXCOORD_0": 2
          },
          "indices": 3,
          "material": 0,
          "mode": 4
        }
      ]
    }
  ],
  "nodes": [
    {
      "children": [
        1
      ],
      "matrix": [
        1.0,
        0.0,
        0.0,
        0.0,
        0.0,
        2.220446049250313e-16,
        -1.0,
        0.0,
        0.0,
        1.0,
        2.220446049250313e-16,
        0.0,
        0.0,
        0.0,
        0.0,
        1.0
      ],
      "name": "Sketchfab_model"
    },
    {
      "children": [
        2
      ],
      "matrix": [
        0.009999999776482582,
        0.0,
        0.0,
        0.0,
        0.0,
        0.0,
        0.009999999776482582,
        0.0,
        0.0,
        -0.009999999776482582,
        0.0,
        0.0,
        0.0,
        0.0,
        0.0,
        1.0
      ],
      "name": "ff15d06c7d9840ad983d01eaabb113d4.fbx"
    },
    {
      "children": [
        3
      ],
      "name": "RootNode"
    },
    {
      "children": [
        4
      ],
      "matrix": [
        100.0,
        0.0,
        0.0,
        0.0,
        0.0,
        -1.629206793918314e-05,
        -99.99999999999868,
        0.0,
        0.0,
        99.99999999999868,
        -1.629206793918314e-05,
        0.0,
        0.0,
        0.0,
        0.0,
        1.0
      ],
      "name": "banana"
    },
    {
      "mesh": 0,
      "name": "banana_bananaps1_0"
    }
  ],
  "samplers": [
    {
      "magFilter": 9728,
      "minFilter": 9986,
      "wrapS": 10497,
      "wrapT": 10497
    }
  ],
  "scene": 0,
  "scenes": [
    {
      "name": "Sketchfab_Scene",
      "nodes": [
        0
      ]
    }
  ],
  "textures": [
    {
      "sampler": 0,
      "source": 0
    }
  ]
}
